<svg width="256" height="46" fill="none" xmlns="http://www.w3.org/2000/svg"><path d="M41.901 24.84c0-.434-.167-.85-.465-1.156a1.564 1.564 0 0 0-1.122-.479 1.582 1.582 0 0 0-1.122.479 1.675 1.675 0 0 0 0 2.312c.148.151.322.272.515.354a1.543 1.543 0 0 0 1.214 0c.193-.082.368-.203.515-.354.148-.152.265-.332.345-.53.08-.199.12-.411.12-.626Zm8.147-.09c-.45 2.003-3 4.802-6.257 7.234a9.703 9.703 0 0 1-2.988-.593l-.803.877c.775.33 1.585.563 2.413.697-3.55 2.4-7.661 4.244-10.795 4.244-1.924 0-5.31-.014-8.87-.032L31.942 27.1s-2.882-.804-1.633-3.377c1.013-2.086 3.743-4.098 3.743-4.098l4-3.393c2.5 2.096 8.028 6.56 12.004 8.513l-.008.005Zm3.73-.603c0-.519-.2-1.016-.557-1.383a1.871 1.871 0 0 0-1.343-.573c-.256 0-.509.054-.744.158a1.886 1.886 0 0 0-.623.448c-3.57-1.85-8.473-5.768-10.957-7.835l4.546-3.856-5.8-.045.893-6.732-4.804 3.683-2.748-5.588-3.747 3.21L24.258.9l-2.044 3.239L16.753 2.1l-.595 3.798s-4.35-2.304-5.236-2.033c-.886.271.81 4.144.81 4.144s-6.05-.815-6.64-.34c-.59.477 2.14 4.279 2.14 4.279s-4.5.544-4.795 1.221c-.297.678 1.845 3.465 1.845 3.465S.075 17.992.002 18.943c-.075.951 2.876 3.938 2.876 3.938S.816 24.578.743 25.19c-.072.61 2.287 2.174 2.287 2.174l-2.647 3.74 5.083 1.761-2.72 2.927 5.524.526-2.15 2.74s4.692.11 6.471.11c.502 3.474 1.956 9.067 3.489 3.727l2.592-3.726h5.363c1.042 1.827 2.884 4.879 3.55 4.879.952 0 5.517-.01 5.517-.01s.62-.807.62-1.315c0-.743-1.688-1.36-2.455-1.834-.473-.292-.363-1.127-.208-1.724h.568c6.806 0 17.704-7.488 19.97-13.087.094.017.19.026.285.028.25 0 .497-.05.727-.148.23-.099.44-.243.616-.424a1.96 1.96 0 0 0 .411-.635c.096-.237.145-.492.145-.748M229.914 30.161c0-5.168 2.646-8.12 6.339-8.12 3.693 0 6.339 2.838 6.339 8.12 0 5.167-2.646 8.177-6.339 8.177-3.693 0-6.339-3.01-6.339-8.177Zm-8.428 0c0 9.313 6.002 14.537 14.773 14.537 8.49 0 14.774-5.338 14.774-14.537 0-9.313-6.002-14.537-14.774-14.537-8.489 0-14.773 5.338-14.773 14.537Zm-21.946-7.723h3.969v15.446h-3.969v6.132h17.475v-6.132h-5.293v-6.475c0-5.28 3.474-7.38 7.002-7.38h2.149v-7.724h-1.323c-3.803 0-6.284 1.596-7.994 5.28h-.219v-5.28H199.54v6.133Zm-15.27-.909c3.192 0 5.072 1.647 5.619 5.338h-11.682c.766-3.52 2.922-5.338 6.063-5.338Zm-14.662 8.973c0 9.483 5.401 14.196 14.883 14.196 7.332 0 12.293-4.316 13.119-9.654h-7.826c-.552 1.818-2.096 3.465-5.293 3.465-3.748 0-6.119-2.159-6.56-6.702h20.066v-2.045c0-9.084-5.348-14.138-13.892-14.138-8.323 0-14.497 5.735-14.497 14.878Zm-25.247-.115c0-4.998 2.315-8.574 6.119-8.574s6.284 3.35 6.284 8.348c0 4.997-2.481 8.348-6.284 8.348s-6.119-3.124-6.119-8.122Zm8.434-19.39h3.969s0 5.536.331 9.17h-.221c-1.433-2.84-4.19-4.543-8.269-4.543-7 0-12.677 5.338-12.677 14.763s5.567 14.31 12.237 14.31c4.354 0 7.279-1.71 8.709-4.541h.221v3.86h11.411v-6.132h-3.583V4.866h-12.132l.004 6.132ZM123.194 33c0 4.373-3.143 6.02-6.065 6.02-2.315 0-3.693-1.08-3.693-3.124 0-1.71 1.047-2.894 3.474-3.288l3.693-.569c1.211-.17 2.094-.568 2.591-1.306V33Zm-16.868-6.927h7.717c0-3.238 1.768-4.77 4.795-4.77 3.026 0 4.356 1.76 4.356 4.088 0 1.42-.718 1.817-3.364 2.214l-5.181.79c-6.45.965-9.26 3.69-9.26 8.405 0 4.657 3.031 7.893 9.205 7.893 4.244 0 7.166-1.59 8.764-4.089h.221v3.407h11.301v-6.127h-3.473V25.845c0-6.7-4.135-10.22-12.403-10.22-6.78 0-12.515 3.288-12.678 10.448Zm-10.97 17.943h5.787v-21.01H84.827v6.47h8.765c-.276 4.94-4.3 7.78-9.481 7.78-6.725 0-10.97-5.053-10.97-12.776 0-7.78 4.41-12.776 11.3-12.776 4.961 0 7.883 2.044 9.096 5.451h7.827V4.948h-7.056v3.919h-.22c-1.6-2.5-4.962-4.604-10.694-4.604-11.41 0-19.073 8.462-19.073 20.215 0 11.47 7.331 20.216 19.018 20.216 5.347 0 9.04-1.71 11.465-4.77h.111l.44 4.092ZM252.703 10.45c0 .35-.256.596-.627.596h-.857V9.89h.857c.383 0 .627.214.627.562Zm1.127-.034c0-.85-.565-1.315-1.591-1.315h-2.588v.74h.44v2.535h-.44v.74h1.992v-.74h-.424v-.62h.739l.783 1.36h1.056v-.74h-.377l-.452-.72.14-.07c.216-.103.4-.267.528-.474a1.3 1.3 0 0 0 .194-.693v-.003Zm1.303.692c0 2.093-1.469 3.672-3.416 3.672-1.972 0-3.402-1.545-3.402-3.672 0-2.127 1.43-3.638 3.402-3.638 1.972 0 3.416 1.53 3.416 3.638Zm.867 0c0-2.557-1.801-4.412-4.283-4.412-2.426 0-4.268 1.897-4.268 4.412 0 2.576 1.788 4.446 4.268 4.446 2.441 0 4.283-1.91 4.283-4.446Z" fill="#CB0043"></path></svg>