<svg xmlns="http://www.w3.org/2000/svg" width="270" height="90" viewBox="0 0 270 90">
    <g fill="none" fill-rule="evenodd">
        <g fill-rule="nonzero">
            <g>
                <g>
                    <path fill="#FFF" d="M11.667 66.667C14.222 81.222 28.333 91.11 43 88.556l202.333-35.667c14.667-2.556 24.556-16.667 22-31.222l-4-21.667H0l11.667 66.667z" transform="translate(-89) translate(89) translate(1)"/>
                    <g>
                        <path fill="#EB5A0A" d="M16.111 1.667H3.778c-1.667 0-3 1.333-3 3v23.11c0 1.667 1.333 3 3 3H16.11c1.667 0 3-1.333 3-3v-23c0-1.666-1.333-3.11-3-3.11" transform="translate(-89) translate(89) translate(1) translate(41.111 16.667)"/>
                        <path fill="#961982" d="M36.667 1.667H24.333c-1.666 0-3 1.333-3 3v23.11c0 1.667 1.334 3 3 3h12.334c1.666 0 3-1.333 3-3v-23c0-1.666-1.334-3.11-3-3.11" transform="translate(-89) translate(89) translate(1) translate(41.111 16.667)"/>
                        <path fill="#96C31E" d="M94.556 1.667H82.222c-1.666 0-3 1.333-3 3v23.11c0 1.667 1.334 3 3 3h12.334c1.666 0 3-1.333 3-3v-23c0-1.666-1.445-3.11-3-3.11" transform="translate(-89) translate(89) translate(1) translate(41.111 16.667)"/>
                        <path fill="#E10514" d="M74 1.667H61.667c-1.667 0-3 1.333-3 3v23.11c0 1.667 1.333 3 3 3H74c1.667 0 3-1.333 3-3v-23c0-1.666-1.333-3.11-3-3.11" transform="translate(-89) translate(89) translate(1) translate(41.111 16.667)"/>
                        <path fill="#0069B4" d="M115 1.667h-12.333c-1.667 0-3 1.333-3 3v23.11c0 1.667 1.333 3 3 3H115c1.667 0 3-1.333 3-3v-23c0-1.666-1.333-3.11-3-3.11" transform="translate(-89) translate(89) translate(1) translate(41.111 16.667)"/>
                        <path fill="#00A0E1" d="M61.333 5.111L50 .444c-1.556-.666-3.333.112-3.889 1.667l-8.667 21.333c-.666 1.556.112 3.334 1.667 4l11.445 4.667c1.555.667 3.333-.111 3.888-1.667l8.667-21.333c.556-1.667-.222-3.444-1.778-4" transform="translate(-89) translate(89) translate(1) translate(41.111 16.667)"/>
                        <path fill="#FFF" d="M6.111 21.222v-.333c0-.556.222-1.111.445-1.556l3.777-5.777h-3c-.444 0-.889-.334-.889-.89V12c0-.444.334-.889.89-.889h5.555c.444 0 .889.333.889.889v.444c0 .556-.222 1.112-.445 1.556l-3.666 5.556h3.222c.444 0 .889.333.889.888v.667c0 .445-.334.889-.89.889H7c-.444 0-.889-.222-.889-.778zM34.333 12c.111-.444.556-.889 1-.889h1.334c.444 0 .777.445.666.889l-2.555 9.222c-.111.445-.556.89-1.111.89h-1c-.445 0-.89-.334-1-.89l-.89-3.778c-.221-1-.444-2.222-.555-3-.11.778-.222 1.89-.444 3l-.89 3.778c-.11.445-.555.89-1 .89h-1c-.444 0-.888-.334-1.11-.89L23.333 12c-.11-.444.223-.889.667-.889h1.333c.445 0 .89.333 1 .889L27 15.111c.222.889.333 2.556.444 3.556.112-.778.223-2 .556-3.223l.778-3.333c.11-.444.555-.889 1-.889h1.11c.445 0 .89.334 1 .89l.89 3.555c.222 1 .444 2.222.444 3 .111-.89.222-2.223.445-3.667l.666-3zM46 21.222v-7.778l-.333-.11c-.445-.112-.89-.556-.89-1v-.223c0-.444.334-.889.89-.889h2.555c.445 0 .89.334.89.89v9.221c0 .445-.334.89-.89.89H46.89c-.445 0-.889-.445-.889-1zM47.556 9.89c-1 0-1.778-.778-1.778-1.778s.778-1.889 1.778-1.889S49.444 7 49.444 8c-.11 1.111-.888 1.889-1.888 1.889M52.556 26.222c-.445.111-.89-.11-1.112-.555l-.222-.445c-.222-.444 0-1 .334-1.333.555-.445.666-1 .666-2.111v-8.334l-.333-.11c-.445-.112-.889-.556-.889-1v-.223c0-.444.333-.889.889-.889h2.555c.445 0 .89.334.89.89v9.555c0 2.444-.667 3.889-2.778 4.555M53.778 9.89c-1 0-1.778-.778-1.778-1.778s.778-1.889 1.778-1.889S55.667 7 55.667 8c0 1.111-.89 1.889-1.89 1.889M67.667 22.333c-1.334 0-2.445-.333-3.223-.666C64 21.444 63.778 21 64 20.556l.333-.667c.223-.445.667-.667 1.111-.445.556.223 1.223.445 1.778.445 1 0 1.445-.333 1.445-1 0-.778-.445-.889-1.89-1.333-1.555-.445-2.666-1.334-2.666-3.334 0-2.222 1.445-3.333 3.778-3.333 1.111 0 1.889.111 2.555.333.445.111.667.667.556 1.111l-.222.667c-.111.444-.667.667-1.111.556-.445-.112-1-.223-1.445-.223-.666 0-1.11.223-1.11.89 0 .666.332.777 1.555 1.11 1.666.445 3 1.111 3 3.445 0 2.222-1.223 3.555-4 3.555M89.111 22.333c-3.667 0-5.333-1.666-5.333-5.777 0-4.112 1.666-5.667 4.555-5.667 3.334 0 4.556 1.778 4.556 5.778v.444c0 .222-.222.445-.445.445H87c.111 2 .667 2.444 2 2.444.667 0 1.222-.222 1.667-.444.444-.223 1-.112 1.222.222l.333.555c.222.334.111.89-.222 1.111-.778.556-1.778.89-2.889.89M88.444 13c-1 0-1.333.444-1.444 2.444h2.778c0-1.666-.222-2.444-1.334-2.444M105.444 22.111c-.444 0-.888-.333-.888-.889V12c0-.444.333-.889.888-.889h.778c.445 0 .89.333 1.111.889v.222c.778-.778 1.667-1.333 3.111-1.333 1.89 0 2.89.778 2.89 3v7.333c0 .445-.334.89-.89.89h-1.333c-.444 0-.889-.334-.889-.89v-6.666c0-1-.333-1.334-1-1.334-.666 0-1.11.222-1.555.667v7.333c0 .445-.334.89-.89.89h-1.333z" transform="translate(-89) translate(89) translate(1) translate(41.111 16.667)"/>
                        <path fill="#0069B4" d="M129.444 14.556c-.222 0-.333-.112-.333-.334v-7.11c0-.223.111-.334.333-.334h2.334c1.444 0 2.11.778 2.11 2 0 .889-.221 1.333-1 1.666.779.223 1.334.778 1.334 1.89 0 1.555-.889 2.222-2.444 2.222h-2.334zm1-4.667h1.112c.777 0 1-.333 1-1.111 0-.667-.223-1-1-1h-1v2.11h-.112zm0 3.555h1.112c.888 0 1.222-.333 1.222-1.222 0-.778-.334-1.222-1.222-1.222h-1.112v2.444zM135.889 14.556c-.222 0-.333-.112-.333-.334v-5c0-.222.11-.333.333-.333h.333c.222 0 .334.111.445.333l.11.334c.334-.445.89-.778 1.445-.778h.222c.112 0 .112.11.112.222l-.112.889c0 .111-.11.222-.222.222H138c-.444 0-.778.111-1 .445v3.777c0 .223-.111.334-.333.334h-.778v-.111zM141.889 14.667c-1.667 0-2.556-.89-2.556-3 0-2.223.89-3 2.334-3 1.555 0 2.222.889 2.222 3v.222c0 .111-.111.222-.222.222h-3c0 1.333.333 1.667 1.222 1.667.444 0 .778-.111 1-.334.111-.11.333-.11.444.112l.223.333c.11.111.11.333-.112.444-.333.223-.888.334-1.555.334m-.222-5.111c-.556 0-.89.333-1 1.444h1.889c0-1-.112-1.444-.89-1.444M145.667 14.556c-.223 0-.334-.112-.334-.334v-5c0-.222.111-.333.334-.333H146c.222 0 .333.111.444.333l.112.334c.444-.445 1-.778 1.666-.778.89 0 1.445.444 1.445 1.444v4c0 .222-.111.334-.334.334h-.555c-.222 0-.334-.112-.334-.334v-3.666c0-.556-.222-.778-.666-.778-.445 0-.778.222-1.111.555v4c0 .223-.111.334-.334.334h-.666v-.111zM153.222 16.667c-1.666 0-2.333-.556-2.333-1.556 0-.555.333-.889.778-1.111-.334-.222-.445-.444-.445-.889 0-.555.222-.889.667-1.222-.445-.333-.667-.778-.667-1.556 0-1.222.778-1.889 2.111-1.889.334 0 .667.112.89.112h1.333c.222 0 .333.11.333.333 0 .222-.111.333-.333.444l-.334.111c.111.223.222.556.222.89 0 1.222-.666 1.777-2.11 1.777-.223 0-.445 0-.667-.111-.111.111-.223.333-.223.556 0 .11.112.333.334.333h1c1.222 0 2 .444 2 1.667 0 1.444-.778 2.11-2.556 2.11m-.889-2.333c-.11.223-.222.445-.222.778 0 .445.222.778 1.222.778.778 0 1.223-.333 1.223-.889s-.334-.667-1-.667h-1.223zm.89-2.889c.666 0 .888-.333.888-.888 0-.667-.222-1-.889-1-.666 0-.889.333-.889 1 0 .666.223.888.89.888M161.111 14.667c-1 0-1.222-.445-1.222-1.667V6.667c0-.223.111-.334.333-.334h.556c.222 0 .333.111.333.334v6.555c0 .222.111.334.222.445.223.11.334.11.445.333v.222c0 .222-.111.334-.222.334-.112.11-.334.11-.445.11M165.333 14.667c-1.666 0-2.555-.89-2.555-3 0-2.223.889-3 2.333-3 1.556 0 2.222.889 2.222 3v.222c0 .111-.11.222-.222.222h-3c0 1.333.333 1.667 1.222 1.667.445 0 .778-.111 1-.334.111-.11.334-.11.445.112l.222.333c.111.111.111.333-.111.444-.445.223-.889.334-1.556.334M165 9.556c-.556 0-.889.333-1 1.444h1.889c.111-1-.111-1.444-.889-1.444M169 14.556c-.222 0-.333-.112-.333-.334v-5c0-.222.11-.333.333-.333h.333c.223 0 .334.111.445.333l.11.334c.334-.445.89-.778 1.445-.778h.223c.11 0 .11.11.11.222l-.11.889c0 .111-.112.222-.223.222h-.222c-.444 0-.778.111-1 .445v3.777c0 .223-.111.334-.333.334H169v-.111zM175 14.667c-1.667 0-2.556-.89-2.556-3 0-2.223.89-3 2.334-3 1.555 0 2.222.889 2.222 3v.222c0 .111-.111.222-.222.222h-3c0 1.333.333 1.667 1.222 1.667.444 0 .778-.111 1-.334.111-.11.333-.11.444.112l.223.333c.11.111.11.333-.111.444-.334.223-.89.334-1.556.334m-.222-5.111c-.556 0-.89.333-1 1.444h1.889c0-1-.111-1.444-.89-1.444M178.778 14.556c-.222 0-.334-.112-.334-.334v-5c0-.222.112-.333.334-.333h.333c.222 0 .333.111.445.333l.11.334c.445-.445 1-.778 1.667-.778.89 0 1.445.444 1.445 1.444v4c0 .222-.111.334-.334.334h-.555c-.222 0-.333-.112-.333-.334v-3.666c0-.556-.223-.778-.667-.778-.445 0-.778.222-1.111.555v4c0 .223-.111.334-.334.334h-.666v-.111zM128.889 21.333c-.222 0-.333-.11-.333-.333v-.333c0-.223.11-.334.333-.334h.222v-1.11c0-.223.111-.334.333-.445l.556-.111c.222 0 .333.11.333.333v1.333h.778c.222 0 .333.111.333.334V21c0 .222-.11.333-.333.333h-.778v3.334c0 .444.111.555.445.555h.333c.111 0 .333 0 .333.222l.112.334c0 .222-.112.444-.223.444-.222.111-.444.111-.666.111-.89 0-1.445-.333-1.445-1.333v-3.556h-.333v-.11zM134.889 26.222c-1.445 0-2.445-.889-2.445-3 0-2.222.89-3 2.445-3 1.555 0 2.444.89 2.444 3 0 2.111-.889 3-2.444 3m0-1c.778 0 1-.444 1-2 0-1.666-.333-2-1-2s-1 .445-1 2c0 1.667.333 2 1 2M138.556 21.333c-.223 0-.334-.11-.334-.333v-.333c0-.223.111-.334.334-.334h.222v-1.11c0-.223.11-.334.333-.445l.556-.111c.222 0 .333.11.333.333v1.333h.778c.222 0 .333.111.333.334V21c0 .222-.111.333-.333.333H140v3.334c0 .444.111.555.444.555h.334c.11 0 .333 0 .333.222l.111.334c0 .222-.11.444-.222.444-.222.111-.444.111-.667.111-.889 0-1.444-.333-1.444-1.333v-3.556h-.333v-.11zM146.556 26.222c-1 0-1.223-.444-1.223-1.666V18.11c0-.222.111-.333.334-.333h.555c.222 0 .334.11.334.333v6.556c0 .222.11.333.222.444.222.111.333.111.444.333v.223c0 .222-.11.333-.222.333-.111.222-.333.222-.444.222M150.778 26.222c-1.667 0-2.556-.889-2.556-3 0-2.222.89-3 2.334-3 1.555 0 2.222.89 2.222 3v.111c0 .111-.111.223-.222.223h-3c0 1.333.333 1.666 1.222 1.666.444 0 .778-.11 1-.333.11-.111.333-.111.444.111l.222.333c.112.111.112.334-.11.445-.334.333-.89.444-1.556.444m-.222-5c-.556 0-.89.334-1 1.445h1.888c0-1.111-.222-1.445-.888-1.445M155.778 26.111c-.222 0-.445-.111-.445-.333l-1.666-5.111c-.111-.111.11-.334.222-.334h.667c.222 0 .444.111.444.334l.667 2.333c.11.333.222 1.111.333 1.556.111-.445.222-1.112.333-1.667l.667-2.333c.111-.223.222-.334.444-.334h.667c.222 0 .333.222.222.334l-1.666 5.11c-.111.223-.223.334-.445.334h-.444v.111zM161.778 26.222c-1.667 0-2.556-.889-2.556-3 0-2.222.89-3 2.334-3 1.555 0 2.222.89 2.222 3v.111c0 .111-.111.223-.222.223h-3c0 1.333.333 1.666 1.222 1.666.444 0 .778-.11 1-.333.11-.111.333-.111.444.111l.222.333c.112.111.112.334-.11.445-.334.333-.778.444-1.556.444m-.222-5c-.556 0-.89.334-1 1.445h1.888c.112-1.111-.11-1.445-.888-1.445M165.556 26.111c-.223 0-.334-.111-.334-.333v-5c0-.222.111-.334.334-.334h.333c.222 0 .333.112.444.334l.111.333c.445-.444 1-.778 1.667-.778.889 0 1.445.445 1.445 1.445v4c0 .222-.112.333-.334.333h-.555c-.223 0-.334-.111-.334-.333V22.11c0-.555-.222-.778-.666-.778-.445 0-.778.223-1.111.556v4c0 .222-.112.333-.334.333h-.666v-.11z" transform="translate(-89) translate(89) translate(1) translate(41.111 16.667)"/>
                    </g>
                </g>
            </g>
        </g>
    </g>
</svg>
